<svg xmlns="http://www.w3.org/2000/svg" width="150" viewBox="0 0 150 75" height="75" version="1.0"><g fill="#FFF" fill-opacity=".4"><g><g><path d="M 36.234375 0 L 1.640625 0 L 1.640625 -7.28125 C 1.640625 -9 2.140625 -10.414062 3.140625 -11.53125 C 4.140625 -12.644531 5.425781 -13.546875 7 -14.234375 C 8.582031 -14.929688 10.28125 -15.484375 12.09375 -15.890625 C 13.914062 -16.304688 15.675781 -16.648438 17.375 -16.921875 C 19.613281 -17.273438 21.394531 -17.671875 22.71875 -18.109375 C 23.726562 -18.429688 24.234375 -18.890625 24.234375 -19.484375 C 24.234375 -19.660156 24.1875 -19.851562 24.09375 -20.0625 C 23.15625 -21.457031 21.613281 -22.15625 19.46875 -22.15625 C 17.34375 -22.15625 15.796875 -21.457031 14.828125 -20.0625 L 1.71875 -20.0625 C 2.15625 -22.007812 3.007812 -23.734375 4.28125 -25.234375 C 5.550781 -26.734375 7.40625 -27.910156 9.84375 -28.765625 C 12.28125 -29.617188 15.488281 -30.046875 19.46875 -30.046875 C 23.445312 -30.046875 26.648438 -29.617188 29.078125 -28.765625 C 31.515625 -27.910156 33.367188 -26.734375 34.640625 -25.234375 C 35.910156 -23.734375 36.765625 -22.007812 37.203125 -20.0625 C 37.265625 -19.59375 37.296875 -19.15625 37.296875 -18.75 C 37.296875 -16.78125 36.546875 -15.148438 35.046875 -13.859375 C 33.546875 -12.578125 31.503906 -11.609375 28.921875 -10.953125 C 26.347656 -10.304688 23.832031 -9.8125 21.375 -9.46875 C 20.125 -9.289062 19 -9.101562 18 -8.90625 C 17.007812 -8.707031 16.21875 -8.484375 15.625 -8.234375 C 15.039062 -7.984375 14.75 -7.664062 14.75 -7.28125 L 36.234375 -7.28125 Z M 36.234375 0" transform="translate(8.582 51.94)"/></g></g><g><g><path d="M 19.375 0.640625 C 15.332031 0.640625 12.050781 0.257812 9.53125 -0.5 C 7.019531 -1.257812 5.132812 -2.28125 3.875 -3.5625 C 2.613281 -4.851562 1.867188 -6.316406 1.640625 -7.953125 L 14.03125 -7.953125 C 14.4375 -6.046875 16.21875 -5.09375 19.375 -5.09375 C 21.0625 -5.09375 22.289062 -5.320312 23.0625 -5.78125 C 23.832031 -6.25 24.320312 -6.8125 24.53125 -7.46875 C 24.75 -8.125 24.859375 -8.742188 24.859375 -9.328125 C 24.859375 -9.921875 24.75 -10.546875 24.53125 -11.203125 C 24.320312 -11.867188 23.832031 -12.429688 23.0625 -12.890625 C 22.289062 -13.359375 21.0625 -13.59375 19.375 -13.59375 C 18.101562 -13.59375 17.097656 -13.453125 16.359375 -13.171875 C 15.628906 -12.890625 15.082031 -12.535156 14.71875 -12.109375 C 14.351562 -11.679688 14.125 -11.21875 14.03125 -10.71875 L 1.640625 -10.71875 C 1.691406 -11.125 1.78125 -11.507812 1.90625 -11.875 L 5.90625 -29.40625 L 34.625 -29.40625 L 34.625 -22.125 L 13.734375 -22.125 L 13.203125 -18.90625 C 15.015625 -19.164062 17.070312 -19.296875 19.375 -19.296875 C 23.789062 -19.296875 27.300781 -18.847656 29.90625 -17.953125 C 32.507812 -17.054688 34.375 -15.851562 35.5 -14.34375 C 36.632812 -12.84375 37.203125 -11.171875 37.203125 -9.328125 C 37.203125 -7.492188 36.632812 -5.820312 35.5 -4.3125 C 34.375 -2.800781 32.507812 -1.597656 29.90625 -0.703125 C 27.300781 0.191406 23.789062 0.640625 19.375 0.640625 Z M 19.375 0.640625" transform="translate(47.527 51.94)"/></g></g><g><g><path d="M 38.765625 0.640625 C 36.359375 0.640625 34.441406 0.265625 33.015625 -0.484375 C 31.597656 -1.242188 30.582031 -2.257812 29.96875 -3.53125 C 29.351562 -4.800781 29.046875 -6.203125 29.046875 -7.734375 C 29.046875 -9.273438 29.351562 -10.675781 29.96875 -11.9375 C 30.582031 -13.207031 31.597656 -14.21875 33.015625 -14.96875 C 34.441406 -15.71875 36.359375 -16.09375 38.765625 -16.09375 C 41.179688 -16.09375 43.097656 -15.71875 44.515625 -14.96875 C 45.941406 -14.21875 46.960938 -13.207031 47.578125 -11.9375 C 48.191406 -10.675781 48.5 -9.273438 48.5 -7.734375 C 48.5 -6.203125 48.191406 -4.800781 47.578125 -3.53125 C 46.960938 -2.257812 45.941406 -1.242188 44.515625 -0.484375 C 43.097656 0.265625 41.179688 0.640625 38.765625 0.640625 Z M 38.765625 -3.671875 C 40.753906 -3.671875 41.75 -5.023438 41.75 -7.734375 C 41.75 -8.222656 41.691406 -8.785156 41.578125 -9.421875 C 41.460938 -10.054688 41.195312 -10.609375 40.78125 -11.078125 C 40.363281 -11.554688 39.691406 -11.796875 38.765625 -11.796875 C 36.765625 -11.796875 35.765625 -10.441406 35.765625 -7.734375 C 35.765625 -7.242188 35.820312 -6.679688 35.9375 -6.046875 C 36.050781 -5.410156 36.320312 -4.851562 36.75 -4.375 C 37.175781 -3.90625 37.847656 -3.671875 38.765625 -3.671875 Z M 11.375 -13.296875 C 8.957031 -13.296875 7.035156 -13.671875 5.609375 -14.421875 C 4.191406 -15.171875 3.175781 -16.175781 2.5625 -17.4375 C 1.945312 -18.707031 1.640625 -20.113281 1.640625 -21.65625 C 1.640625 -23.1875 1.945312 -24.585938 2.5625 -25.859375 C 3.175781 -27.128906 4.191406 -28.140625 5.609375 -28.890625 C 7.035156 -29.648438 8.957031 -30.03125 11.375 -30.03125 C 13.78125 -30.03125 15.691406 -29.648438 17.109375 -28.890625 C 18.535156 -28.140625 19.554688 -27.128906 20.171875 -25.859375 C 20.796875 -24.585938 21.109375 -23.1875 21.109375 -21.65625 C 21.109375 -20.113281 20.796875 -18.707031 20.171875 -17.4375 C 19.554688 -16.175781 18.535156 -15.171875 17.109375 -14.421875 C 15.691406 -13.671875 13.78125 -13.296875 11.375 -13.296875 Z M 11.375 -17.59375 C 13.375 -17.59375 14.375 -18.945312 14.375 -21.65625 C 14.375 -22.144531 14.316406 -22.707031 14.203125 -23.34375 C 14.085938 -23.976562 13.816406 -24.53125 13.390625 -25 C 12.960938 -25.476562 12.289062 -25.71875 11.375 -25.71875 C 9.375 -25.71875 8.375 -24.363281 8.375 -21.65625 C 8.375 -21.164062 8.429688 -20.601562 8.546875 -19.96875 C 8.671875 -19.332031 8.945312 -18.773438 9.375 -18.296875 C 9.800781 -17.828125 10.46875 -17.59375 11.375 -17.59375 Z M 21.984375 0.015625 L 14.515625 0.015625 L 28.171875 -29.40625 L 35.65625 -29.40625 Z M 21.984375 0.015625" transform="translate(86.368 51.94)"/></g></g></g><g fill="#FFF"><g><g><path d="M 36.234375 0 L 1.640625 0 L 1.640625 -7.28125 C 1.640625 -9 2.140625 -10.414062 3.140625 -11.53125 C 4.140625 -12.644531 5.425781 -13.546875 7 -14.234375 C 8.582031 -14.929688 10.28125 -15.484375 12.09375 -15.890625 C 13.914062 -16.304688 15.675781 -16.648438 17.375 -16.921875 C 19.613281 -17.273438 21.394531 -17.671875 22.71875 -18.109375 C 23.726562 -18.429688 24.234375 -18.890625 24.234375 -19.484375 C 24.234375 -19.660156 24.1875 -19.851562 24.09375 -20.0625 C 23.15625 -21.457031 21.613281 -22.15625 19.46875 -22.15625 C 17.34375 -22.15625 15.796875 -21.457031 14.828125 -20.0625 L 1.71875 -20.0625 C 2.15625 -22.007812 3.007812 -23.734375 4.28125 -25.234375 C 5.550781 -26.734375 7.40625 -27.910156 9.84375 -28.765625 C 12.28125 -29.617188 15.488281 -30.046875 19.46875 -30.046875 C 23.445312 -30.046875 26.648438 -29.617188 29.078125 -28.765625 C 31.515625 -27.910156 33.367188 -26.734375 34.640625 -25.234375 C 35.910156 -23.734375 36.765625 -22.007812 37.203125 -20.0625 C 37.265625 -19.59375 37.296875 -19.15625 37.296875 -18.75 C 37.296875 -16.78125 36.546875 -15.148438 35.046875 -13.859375 C 33.546875 -12.578125 31.503906 -11.609375 28.921875 -10.953125 C 26.347656 -10.304688 23.832031 -9.8125 21.375 -9.46875 C 20.125 -9.289062 19 -9.101562 18 -8.90625 C 17.007812 -8.707031 16.21875 -8.484375 15.625 -8.234375 C 15.039062 -7.984375 14.75 -7.664062 14.75 -7.28125 L 36.234375 -7.28125 Z M 36.234375 0" transform="translate(11.033 51)"/></g></g><g><g><path d="M 19.375 0.640625 C 15.332031 0.640625 12.050781 0.257812 9.53125 -0.5 C 7.019531 -1.257812 5.132812 -2.28125 3.875 -3.5625 C 2.613281 -4.851562 1.867188 -6.316406 1.640625 -7.953125 L 14.03125 -7.953125 C 14.4375 -6.046875 16.21875 -5.09375 19.375 -5.09375 C 21.0625 -5.09375 22.289062 -5.320312 23.0625 -5.78125 C 23.832031 -6.25 24.320312 -6.8125 24.53125 -7.46875 C 24.75 -8.125 24.859375 -8.742188 24.859375 -9.328125 C 24.859375 -9.921875 24.75 -10.546875 24.53125 -11.203125 C 24.320312 -11.867188 23.832031 -12.429688 23.0625 -12.890625 C 22.289062 -13.359375 21.0625 -13.59375 19.375 -13.59375 C 18.101562 -13.59375 17.097656 -13.453125 16.359375 -13.171875 C 15.628906 -12.890625 15.082031 -12.535156 14.71875 -12.109375 C 14.351562 -11.679688 14.125 -11.21875 14.03125 -10.71875 L 1.640625 -10.71875 C 1.691406 -11.125 1.78125 -11.507812 1.90625 -11.875 L 5.90625 -29.40625 L 34.625 -29.40625 L 34.625 -22.125 L 13.734375 -22.125 L 13.203125 -18.90625 C 15.015625 -19.164062 17.070312 -19.296875 19.375 -19.296875 C 23.789062 -19.296875 27.300781 -18.847656 29.90625 -17.953125 C 32.507812 -17.054688 34.375 -15.851562 35.5 -14.34375 C 36.632812 -12.84375 37.203125 -11.171875 37.203125 -9.328125 C 37.203125 -7.492188 36.632812 -5.820312 35.5 -4.3125 C 34.375 -2.800781 32.507812 -1.597656 29.90625 -0.703125 C 27.300781 0.191406 23.789062 0.640625 19.375 0.640625 Z M 19.375 0.640625" transform="translate(49.977 51)"/></g></g><g><g><path d="M 38.765625 0.640625 C 36.359375 0.640625 34.441406 0.265625 33.015625 -0.484375 C 31.597656 -1.242188 30.582031 -2.257812 29.96875 -3.53125 C 29.351562 -4.800781 29.046875 -6.203125 29.046875 -7.734375 C 29.046875 -9.273438 29.351562 -10.675781 29.96875 -11.9375 C 30.582031 -13.207031 31.597656 -14.21875 33.015625 -14.96875 C 34.441406 -15.71875 36.359375 -16.09375 38.765625 -16.09375 C 41.179688 -16.09375 43.097656 -15.71875 44.515625 -14.96875 C 45.941406 -14.21875 46.960938 -13.207031 47.578125 -11.9375 C 48.191406 -10.675781 48.5 -9.273438 48.5 -7.734375 C 48.5 -6.203125 48.191406 -4.800781 47.578125 -3.53125 C 46.960938 -2.257812 45.941406 -1.242188 44.515625 -0.484375 C 43.097656 0.265625 41.179688 0.640625 38.765625 0.640625 Z M 38.765625 -3.671875 C 40.753906 -3.671875 41.75 -5.023438 41.75 -7.734375 C 41.75 -8.222656 41.691406 -8.785156 41.578125 -9.421875 C 41.460938 -10.054688 41.195312 -10.609375 40.78125 -11.078125 C 40.363281 -11.554688 39.691406 -11.796875 38.765625 -11.796875 C 36.765625 -11.796875 35.765625 -10.441406 35.765625 -7.734375 C 35.765625 -7.242188 35.820312 -6.679688 35.9375 -6.046875 C 36.050781 -5.410156 36.320312 -4.851562 36.75 -4.375 C 37.175781 -3.90625 37.847656 -3.671875 38.765625 -3.671875 Z M 11.375 -13.296875 C 8.957031 -13.296875 7.035156 -13.671875 5.609375 -14.421875 C 4.191406 -15.171875 3.175781 -16.175781 2.5625 -17.4375 C 1.945312 -18.707031 1.640625 -20.113281 1.640625 -21.65625 C 1.640625 -23.1875 1.945312 -24.585938 2.5625 -25.859375 C 3.175781 -27.128906 4.191406 -28.140625 5.609375 -28.890625 C 7.035156 -29.648438 8.957031 -30.03125 11.375 -30.03125 C 13.78125 -30.03125 15.691406 -29.648438 17.109375 -28.890625 C 18.535156 -28.140625 19.554688 -27.128906 20.171875 -25.859375 C 20.796875 -24.585938 21.109375 -23.1875 21.109375 -21.65625 C 21.109375 -20.113281 20.796875 -18.707031 20.171875 -17.4375 C 19.554688 -16.175781 18.535156 -15.171875 17.109375 -14.421875 C 15.691406 -13.671875 13.78125 -13.296875 11.375 -13.296875 Z M 11.375 -17.59375 C 13.375 -17.59375 14.375 -18.945312 14.375 -21.65625 C 14.375 -22.144531 14.316406 -22.707031 14.203125 -23.34375 C 14.085938 -23.976562 13.816406 -24.53125 13.390625 -25 C 12.960938 -25.476562 12.289062 -25.71875 11.375 -25.71875 C 9.375 -25.71875 8.375 -24.363281 8.375 -21.65625 C 8.375 -21.164062 8.429688 -20.601562 8.546875 -19.96875 C 8.671875 -19.332031 8.945312 -18.773438 9.375 -18.296875 C 9.800781 -17.828125 10.46875 -17.59375 11.375 -17.59375 Z M 21.984375 0.015625 L 14.515625 0.015625 L 28.171875 -29.40625 L 35.65625 -29.40625 Z M 21.984375 0.015625" transform="translate(88.82 51)"/></g></g></g></svg>