<svg xmlns="http://www.w3.org/2000/svg" width="150" viewBox="0 0 150 75" height="75" version="1.0"><g fill="#FFF" fill-opacity=".4"><g><g><path d="M 20.203125 0 L 7.859375 0 L 7.859375 -22.15625 L 1.234375 -22.15625 L 1.234375 -29.421875 L 20.203125 -29.421875 Z M 20.203125 0" transform="translate(-3.23 50.703)"/></g></g><g><g><path d="M 19.484375 0.640625 C 13.179688 0.640625 8.546875 -0.859375 5.578125 -3.859375 C 2.953125 -6.503906 1.640625 -10.117188 1.640625 -14.703125 C 1.640625 -19.265625 2.953125 -22.875 5.578125 -25.53125 C 8.546875 -28.53125 13.179688 -30.03125 19.484375 -30.03125 C 25.773438 -30.03125 30.398438 -28.53125 33.359375 -25.53125 C 36.003906 -22.875 37.328125 -19.265625 37.328125 -14.703125 C 37.328125 -10.117188 36.003906 -6.503906 33.359375 -3.859375 C 30.398438 -0.859375 25.773438 0.640625 19.484375 0.640625 Z M 19.484375 -7.265625 C 21.734375 -7.265625 23.28125 -8.164062 24.125 -9.96875 C 24.675781 -11.1875 24.953125 -12.765625 24.953125 -14.703125 C 24.953125 -16.628906 24.675781 -18.207031 24.125 -19.4375 C 23.28125 -21.25 21.734375 -22.15625 19.484375 -22.15625 C 17.210938 -22.15625 15.660156 -21.25 14.828125 -19.4375 C 14.265625 -18.207031 13.984375 -16.628906 13.984375 -14.703125 C 13.984375 -12.773438 14.265625 -11.195312 14.828125 -9.96875 C 15.660156 -8.164062 17.210938 -7.265625 19.484375 -7.265625 Z M 19.484375 -7.265625" transform="translate(20.251 50.703)"/></g></g><g><g><path d="M 19.484375 0.640625 C 13.179688 0.640625 8.546875 -0.859375 5.578125 -3.859375 C 2.953125 -6.503906 1.640625 -10.117188 1.640625 -14.703125 C 1.640625 -19.265625 2.953125 -22.875 5.578125 -25.53125 C 8.546875 -28.53125 13.179688 -30.03125 19.484375 -30.03125 C 25.773438 -30.03125 30.398438 -28.53125 33.359375 -25.53125 C 36.003906 -22.875 37.328125 -19.265625 37.328125 -14.703125 C 37.328125 -10.117188 36.003906 -6.503906 33.359375 -3.859375 C 30.398438 -0.859375 25.773438 0.640625 19.484375 0.640625 Z M 19.484375 -7.265625 C 21.734375 -7.265625 23.28125 -8.164062 24.125 -9.96875 C 24.675781 -11.1875 24.953125 -12.765625 24.953125 -14.703125 C 24.953125 -16.628906 24.675781 -18.207031 24.125 -19.4375 C 23.28125 -21.25 21.734375 -22.15625 19.484375 -22.15625 C 17.210938 -22.15625 15.660156 -21.25 14.828125 -19.4375 C 14.265625 -18.207031 13.984375 -16.628906 13.984375 -14.703125 C 13.984375 -12.773438 14.265625 -11.195312 14.828125 -9.96875 C 15.660156 -8.164062 17.210938 -7.265625 19.484375 -7.265625 Z M 19.484375 -7.265625" transform="translate(59.216 50.703)"/></g></g><g><g><path d="M 38.765625 0.640625 C 36.359375 0.640625 34.441406 0.265625 33.015625 -0.484375 C 31.597656 -1.242188 30.582031 -2.257812 29.96875 -3.53125 C 29.351562 -4.800781 29.046875 -6.203125 29.046875 -7.734375 C 29.046875 -9.273438 29.351562 -10.675781 29.96875 -11.9375 C 30.582031 -13.207031 31.597656 -14.21875 33.015625 -14.96875 C 34.441406 -15.71875 36.359375 -16.09375 38.765625 -16.09375 C 41.179688 -16.09375 43.097656 -15.71875 44.515625 -14.96875 C 45.941406 -14.21875 46.960938 -13.207031 47.578125 -11.9375 C 48.191406 -10.675781 48.5 -9.273438 48.5 -7.734375 C 48.5 -6.203125 48.191406 -4.800781 47.578125 -3.53125 C 46.960938 -2.257812 45.941406 -1.242188 44.515625 -0.484375 C 43.097656 0.265625 41.179688 0.640625 38.765625 0.640625 Z M 38.765625 -3.671875 C 40.753906 -3.671875 41.75 -5.023438 41.75 -7.734375 C 41.75 -8.222656 41.691406 -8.785156 41.578125 -9.421875 C 41.460938 -10.054688 41.195312 -10.609375 40.78125 -11.078125 C 40.363281 -11.554688 39.691406 -11.796875 38.765625 -11.796875 C 36.765625 -11.796875 35.765625 -10.441406 35.765625 -7.734375 C 35.765625 -7.242188 35.820312 -6.679688 35.9375 -6.046875 C 36.050781 -5.410156 36.320312 -4.851562 36.75 -4.375 C 37.175781 -3.90625 37.847656 -3.671875 38.765625 -3.671875 Z M 11.375 -13.296875 C 8.957031 -13.296875 7.035156 -13.671875 5.609375 -14.421875 C 4.191406 -15.171875 3.175781 -16.175781 2.5625 -17.4375 C 1.945312 -18.707031 1.640625 -20.113281 1.640625 -21.65625 C 1.640625 -23.1875 1.945312 -24.585938 2.5625 -25.859375 C 3.175781 -27.128906 4.191406 -28.140625 5.609375 -28.890625 C 7.035156 -29.648438 8.957031 -30.03125 11.375 -30.03125 C 13.78125 -30.03125 15.691406 -29.648438 17.109375 -28.890625 C 18.535156 -28.140625 19.554688 -27.128906 20.171875 -25.859375 C 20.796875 -24.585938 21.109375 -23.1875 21.109375 -21.65625 C 21.109375 -20.113281 20.796875 -18.707031 20.171875 -17.4375 C 19.554688 -16.175781 18.535156 -15.171875 17.109375 -14.421875 C 15.691406 -13.671875 13.78125 -13.296875 11.375 -13.296875 Z M 11.375 -17.59375 C 13.375 -17.59375 14.375 -18.945312 14.375 -21.65625 C 14.375 -22.144531 14.316406 -22.707031 14.203125 -23.34375 C 14.085938 -23.976562 13.816406 -24.53125 13.390625 -25 C 12.960938 -25.476562 12.289062 -25.71875 11.375 -25.71875 C 9.375 -25.71875 8.375 -24.363281 8.375 -21.65625 C 8.375 -21.164062 8.429688 -20.601562 8.546875 -19.96875 C 8.671875 -19.332031 8.945312 -18.773438 9.375 -18.296875 C 9.800781 -17.828125 10.46875 -17.59375 11.375 -17.59375 Z M 21.984375 0.015625 L 14.515625 0.015625 L 28.171875 -29.40625 L 35.65625 -29.40625 Z M 21.984375 0.015625" transform="translate(98.18 50.703)"/></g></g></g><g fill="#FFF"><g><g><path d="M 20.203125 0 L 7.859375 0 L 7.859375 -22.15625 L 1.234375 -22.15625 L 1.234375 -29.421875 L 20.203125 -29.421875 Z M 20.203125 0" transform="translate(-.78 49.762)"/></g></g><g><g><path d="M 19.484375 0.640625 C 13.179688 0.640625 8.546875 -0.859375 5.578125 -3.859375 C 2.953125 -6.503906 1.640625 -10.117188 1.640625 -14.703125 C 1.640625 -19.265625 2.953125 -22.875 5.578125 -25.53125 C 8.546875 -28.53125 13.179688 -30.03125 19.484375 -30.03125 C 25.773438 -30.03125 30.398438 -28.53125 33.359375 -25.53125 C 36.003906 -22.875 37.328125 -19.265625 37.328125 -14.703125 C 37.328125 -10.117188 36.003906 -6.503906 33.359375 -3.859375 C 30.398438 -0.859375 25.773438 0.640625 19.484375 0.640625 Z M 19.484375 -7.265625 C 21.734375 -7.265625 23.28125 -8.164062 24.125 -9.96875 C 24.675781 -11.1875 24.953125 -12.765625 24.953125 -14.703125 C 24.953125 -16.628906 24.675781 -18.207031 24.125 -19.4375 C 23.28125 -21.25 21.734375 -22.15625 19.484375 -22.15625 C 17.210938 -22.15625 15.660156 -21.25 14.828125 -19.4375 C 14.265625 -18.207031 13.984375 -16.628906 13.984375 -14.703125 C 13.984375 -12.773438 14.265625 -11.195312 14.828125 -9.96875 C 15.660156 -8.164062 17.210938 -7.265625 19.484375 -7.265625 Z M 19.484375 -7.265625" transform="translate(22.702 49.762)"/></g></g><g><g><path d="M 19.484375 0.640625 C 13.179688 0.640625 8.546875 -0.859375 5.578125 -3.859375 C 2.953125 -6.503906 1.640625 -10.117188 1.640625 -14.703125 C 1.640625 -19.265625 2.953125 -22.875 5.578125 -25.53125 C 8.546875 -28.53125 13.179688 -30.03125 19.484375 -30.03125 C 25.773438 -30.03125 30.398438 -28.53125 33.359375 -25.53125 C 36.003906 -22.875 37.328125 -19.265625 37.328125 -14.703125 C 37.328125 -10.117188 36.003906 -6.503906 33.359375 -3.859375 C 30.398438 -0.859375 25.773438 0.640625 19.484375 0.640625 Z M 19.484375 -7.265625 C 21.734375 -7.265625 23.28125 -8.164062 24.125 -9.96875 C 24.675781 -11.1875 24.953125 -12.765625 24.953125 -14.703125 C 24.953125 -16.628906 24.675781 -18.207031 24.125 -19.4375 C 23.28125 -21.25 21.734375 -22.15625 19.484375 -22.15625 C 17.210938 -22.15625 15.660156 -21.25 14.828125 -19.4375 C 14.265625 -18.207031 13.984375 -16.628906 13.984375 -14.703125 C 13.984375 -12.773438 14.265625 -11.195312 14.828125 -9.96875 C 15.660156 -8.164062 17.210938 -7.265625 19.484375 -7.265625 Z M 19.484375 -7.265625" transform="translate(61.667 49.762)"/></g></g><g><g><path d="M 38.765625 0.640625 C 36.359375 0.640625 34.441406 0.265625 33.015625 -0.484375 C 31.597656 -1.242188 30.582031 -2.257812 29.96875 -3.53125 C 29.351562 -4.800781 29.046875 -6.203125 29.046875 -7.734375 C 29.046875 -9.273438 29.351562 -10.675781 29.96875 -11.9375 C 30.582031 -13.207031 31.597656 -14.21875 33.015625 -14.96875 C 34.441406 -15.71875 36.359375 -16.09375 38.765625 -16.09375 C 41.179688 -16.09375 43.097656 -15.71875 44.515625 -14.96875 C 45.941406 -14.21875 46.960938 -13.207031 47.578125 -11.9375 C 48.191406 -10.675781 48.5 -9.273438 48.5 -7.734375 C 48.5 -6.203125 48.191406 -4.800781 47.578125 -3.53125 C 46.960938 -2.257812 45.941406 -1.242188 44.515625 -0.484375 C 43.097656 0.265625 41.179688 0.640625 38.765625 0.640625 Z M 38.765625 -3.671875 C 40.753906 -3.671875 41.75 -5.023438 41.75 -7.734375 C 41.75 -8.222656 41.691406 -8.785156 41.578125 -9.421875 C 41.460938 -10.054688 41.195312 -10.609375 40.78125 -11.078125 C 40.363281 -11.554688 39.691406 -11.796875 38.765625 -11.796875 C 36.765625 -11.796875 35.765625 -10.441406 35.765625 -7.734375 C 35.765625 -7.242188 35.820312 -6.679688 35.9375 -6.046875 C 36.050781 -5.410156 36.320312 -4.851562 36.75 -4.375 C 37.175781 -3.90625 37.847656 -3.671875 38.765625 -3.671875 Z M 11.375 -13.296875 C 8.957031 -13.296875 7.035156 -13.671875 5.609375 -14.421875 C 4.191406 -15.171875 3.175781 -16.175781 2.5625 -17.4375 C 1.945312 -18.707031 1.640625 -20.113281 1.640625 -21.65625 C 1.640625 -23.1875 1.945312 -24.585938 2.5625 -25.859375 C 3.175781 -27.128906 4.191406 -28.140625 5.609375 -28.890625 C 7.035156 -29.648438 8.957031 -30.03125 11.375 -30.03125 C 13.78125 -30.03125 15.691406 -29.648438 17.109375 -28.890625 C 18.535156 -28.140625 19.554688 -27.128906 20.171875 -25.859375 C 20.796875 -24.585938 21.109375 -23.1875 21.109375 -21.65625 C 21.109375 -20.113281 20.796875 -18.707031 20.171875 -17.4375 C 19.554688 -16.175781 18.535156 -15.171875 17.109375 -14.421875 C 15.691406 -13.671875 13.78125 -13.296875 11.375 -13.296875 Z M 11.375 -17.59375 C 13.375 -17.59375 14.375 -18.945312 14.375 -21.65625 C 14.375 -22.144531 14.316406 -22.707031 14.203125 -23.34375 C 14.085938 -23.976562 13.816406 -24.53125 13.390625 -25 C 12.960938 -25.476562 12.289062 -25.71875 11.375 -25.71875 C 9.375 -25.71875 8.375 -24.363281 8.375 -21.65625 C 8.375 -21.164062 8.429688 -20.601562 8.546875 -19.96875 C 8.671875 -19.332031 8.945312 -18.773438 9.375 -18.296875 C 9.800781 -17.828125 10.46875 -17.59375 11.375 -17.59375 Z M 21.984375 0.015625 L 14.515625 0.015625 L 28.171875 -29.40625 L 35.65625 -29.40625 Z M 21.984375 0.015625" transform="translate(100.632 49.762)"/></g></g></g></svg>